<?xml version="1.0" encoding="iso-8859-1"?>
<!-- Generator: Adobe Illustrator 19.0.0, SVG Export Plug-In . SVG Version: 6.00 Build 0)  -->
<svg xmlns="http://www.w3.org/2000/svg" xmlns:xlink="http://www.w3.org/1999/xlink" version="1.1" id="Layer_1" x="0px" y="0px" viewBox="0 0 512 512" style="enable-background:new 0 0 512 512;" xml:space="preserve" width="512px" height="512px">
<g>
	<g>
		<g>
			<path d="M83.277,376.285c5.11,0,9.253-4.142,9.253-9.253V33.928c0-8.504,6.918-15.422,15.422-15.422h296.096     c8.504,0,15.422,6.918,15.422,15.422c0,5.111,4.142,9.253,9.253,9.253s9.253-4.142,9.253-9.253     C437.976,15.221,422.755,0,404.048,0H107.952C89.243,0,74.024,15.221,74.024,33.928v333.105     C74.024,372.144,78.167,376.285,83.277,376.285z" fill="#292b2c"/>
			<path d="M428.723,61.683c-5.111,0-9.253,4.142-9.253,9.253v407.136c0,8.504-6.918,15.422-15.422,15.422H107.952     c-8.504,0-15.422-6.918-15.422-15.422v-74.028c0-5.111-4.143-9.253-9.253-9.253c-5.11,0-9.253,4.142-9.253,9.253v74.028     c0,18.707,15.219,33.928,33.928,33.928h296.096c18.707,0,33.928-15.221,33.928-33.928V70.936     C437.976,65.825,433.834,61.683,428.723,61.683z" fill="#292b2c"/>
			<path d="M191.229,212.819c0-8.504-6.918-15.422-15.422-15.422h-37.012c-8.504,0-15.422,6.918-15.422,15.422v37.012     c0,8.504,6.918,15.422,15.422,15.422h37.012c8.504,0,15.422-6.918,15.422-15.422V212.819z M172.723,246.747H141.88v-30.843     h30.843V246.747z" fill="#292b2c"/>
			<path d="M289.928,212.819c0-8.504-6.918-15.422-15.422-15.422h-37.012c-8.504,0-15.422,6.918-15.422,15.422v37.012     c0,8.504,6.918,15.422,15.422,15.422h37.012c8.504,0,15.422-6.918,15.422-15.422V212.819z M271.422,246.747h-30.843v-30.843     h30.843V246.747z" fill="#292b2c"/>
			<path d="M388.627,212.819c0-8.504-6.918-15.422-15.422-15.422h-37.012c-8.504,0-15.422,6.918-15.422,15.422v37.012     c0,8.504,6.918,15.422,15.422,15.422h37.012c8.504,0,15.422-6.918,15.422-15.422V212.819z M370.12,246.747h-30.843v-30.843     h30.843V246.747z" fill="#292b2c"/>
			<path d="M191.229,311.518c0-8.504-6.918-15.422-15.422-15.422h-37.012c-8.504,0-15.422,6.918-15.422,15.422v37.012     c0,8.504,6.918,15.422,15.422,15.422h37.012c8.504,0,15.422-6.918,15.422-15.422V311.518z M172.723,345.446H141.88v-30.843     h30.843V345.446z" fill="#292b2c"/>
			<path d="M289.928,311.518c0-8.504-6.918-15.422-15.422-15.422h-37.012c-8.504,0-15.422,6.918-15.422,15.422v37.012     c0,8.504,6.918,15.422,15.422,15.422h37.012c8.504,0,15.422-6.918,15.422-15.422V311.518z M271.422,345.446h-30.843v-30.843     h30.843V345.446z" fill="#292b2c"/>
			<path d="M388.627,311.518c0-8.504-6.918-15.422-15.422-15.422h-37.012c-8.504,0-15.422,6.918-15.422,15.422v37.012     c0,8.504,6.918,15.422,15.422,15.422h37.012c8.504,0,15.422-6.918,15.422-15.422V311.518z M370.12,345.446h-30.843v-30.843     h30.843V345.446z" fill="#292b2c"/>
			<path d="M175.807,394.795h-37.012c-8.504,0-15.422,6.918-15.422,15.422v37.012c0,8.504,6.918,15.422,15.422,15.422h37.012     c8.504,0,15.422-6.918,15.422-15.422v-37.012C191.229,401.713,184.311,394.795,175.807,394.795z M172.723,444.145H141.88v-30.843     h30.843V444.145z" fill="#292b2c"/>
			<path d="M274.506,394.795h-37.012c-8.504,0-15.422,6.918-15.422,15.422v37.012c0,8.504,6.918,15.422,15.422,15.422h37.012     c8.504,0,15.422-6.918,15.422-15.422v-37.012C289.928,401.713,283.01,394.795,274.506,394.795z M271.422,444.145h-30.843v-30.843     h30.843V444.145z" fill="#292b2c"/>
			<path d="M373.205,394.795h-37.012c-8.504,0-15.422,6.918-15.422,15.422v37.012c0,8.504,6.918,15.422,15.422,15.422h37.012     c8.504,0,15.422-6.918,15.422-15.422v-37.012C388.627,401.713,381.709,394.795,373.205,394.795z M370.12,444.145h-30.843v-30.843     h30.843V444.145z" fill="#292b2c"/>
			<path d="M379.373,67.855c5.111,0,9.253-4.142,9.253-9.253s-4.142-9.253-9.253-9.253H132.627c-5.11,0-9.253,4.142-9.253,9.253     v98.699c0,5.111,4.143,9.253,9.253,9.253h246.747c5.111,0,9.253-4.142,9.253-9.253V95.617c0-5.111-4.142-9.253-9.253-9.253     c-5.111,0-9.253,4.142-9.253,9.253v52.431H141.88V67.855H379.373z" fill="#292b2c"/>
		</g>
	</g>
</g>
<g>
</g>
<g>
</g>
<g>
</g>
<g>
</g>
<g>
</g>
<g>
</g>
<g>
</g>
<g>
</g>
<g>
</g>
<g>
</g>
<g>
</g>
<g>
</g>
<g>
</g>
<g>
</g>
<g>
</g>
</svg>
